{"title":"Dial Help 1988 Erotic Horror (transfer)","uid":6573045,"size":1227745484,"categoryP":"video","categoryS":"movies","magnet":"?xt=urn:btih:57ec03b76dc695466984e6cf994e096b882c179e&amp;dn=Dial+Help+1988+Erotic+Horror+%28transfer%29&amp;tr=udp%3A%2F%2Ftracker.openbittorrent.com%3A80&amp;tr=udp%3A%2F%2Fopen.demonii.com%3A1337&amp;tr=udp%3A%2F%2Ftracker.coppersurfer.tk%3A6969&amp;tr=udp%3A%2F%2Fexodus.desync.com%3A6969","seeders":3,"leechers":3,"uploader":"lostinlodos","files":-1,"time":1312055988,"description":"Dial Help 1988 \nErotic Horror &lt;a href=&quot;\nhttp://www.imdb.com/title/tt0095952/&quot; rel=&quot;nofollow&quot; target=&quot;_NEW&quot;&gt;\nhttp://www.imdb.com/title/tt0095952/&lt;/a&gt;\n\n\nVHS Rip\nGeneral\nComplete name                    : C:\\Users\\Home\\Desktop\\My Files\\Dial Help.avi\nFormat                           : AVI\nFormat/Info                      : Audio Video Interleave\nFile size                        : 1.14 GiB\nDuration                         : 1h 38mn\nOverall bit rate                 : 1 660 Kbps\n\nVideo\nID                               : 0\nFormat                           : MPEG-4 Visual\nFormat profile                   : Simple@L3\nFormat settings, BVOP            : No\nFormat settings, QPel            : No\nFormat settings, GMC             : No warppoints\nFormat settings, Matrix          : Default (H.263)\nCodec ID                         : XVID\nCodec ID/Hint                    : XviD\nDuration                         : 1h 38mn\nBit rate                         : 1 551 Kbps\nWidth                            : 720 pixels\nHeight                           : 480 pixels\nDisplay aspect ratio             : 3:2\nFrame rate                       : 29.970 fps\nOriginal frame rate              : 29.000 fps\nStandard                         : NTSC\nColor space                      : YUV\nChroma subsampling               : 4:2:0\nBit depth                        : 8 bits\nScan type                        : Progressive\nCompression mode                 : Lossy\nBits/(Pixel*Frame)               : 0.150\nStream size                      : 1.07 GiB (93%)\nWriting library                  : XviD 1.2.1 (UTC 2008-12-04)\n\nAudio\nID                               : 1\nFormat                           : MPEG Audio\nFormat version                   : Version 1\nFormat profile                   : Layer 3\nMode                             : Joint stereo\nCodec ID                         : 55\nCodec ID/Hint                    : MP3\nDuration                         : 1h 38mn\nBit rate mode                    : Constant\nBit rate                         : 96.0 Kbps\nChannel(s)                       : 2 channels\nSampling rate                    : 44.1 KHz\nCompression mode                 : Lossy\nStream size                      : 67.7 MiB (6%)\nAlignment                        : Aligned on interleaves\nInterleave, duration             : 26 ms (0.78 video frame)\nWriting library                  : LAME3.98","torrent":{"xt":"urn:btih:57ec03b76dc695466984e6cf994e096b882c179e","amp;dn":"Dial+Help+1988+Erotic+Horror+%28transfer%29","amp;tr":["udp%3A%2F%2Ftracker.openbittorrent.com%3A80","udp%3A%2F%2Fopen.demonii.com%3A1337","udp%3A%2F%2Ftracker.coppersurfer.tk%3A6969","udp%3A%2F%2Fexodus.desync.com%3A6969"],"infoHash":"57ec03b76dc695466984e6cf994e096b882c179e","infoHashBuffer":{"type":"Buffer","data":[87,236,3,183,109,198,149,70,105,132,230,207,153,78,9,107,136,44,23,158]},"announce":[],"urlList":[]}}